<?xml version="1.0" encoding="UTF-8"?><svg id="Layer_1" xmlns="http://www.w3.org/2000/svg" viewBox="0 0 1148.58 168.1"><defs><style>.cls-1{fill:#178287;}.cls-1,.cls-2,.cls-3{stroke-width:0px;}.cls-2{fill:#fff;}.cls-3{fill:#ffbd48;}</style></defs><path class="cls-2" d="m333.91,121.94c-9.21,8.43-21,12.65-35.35,12.65-17.76,0-31.72-5.7-41.88-17.09-10.16-11.45-15.24-27.14-15.24-47.07,0-21.55,5.78-38.17,17.34-49.84,10.05-10.16,22.84-15.24,38.36-15.24,20.77,0,35.96,6.81,45.57,20.44,5.3,7.65,8.15,15.33,8.54,23.03h-25.8c-1.68-5.92-3.83-10.39-6.45-13.4-4.69-5.36-11.64-8.04-20.86-8.04s-16.78,3.78-22.2,11.35c-5.42,7.57-8.12,18.27-8.12,32.12s2.86,24.22,8.59,31.12c5.72,6.9,13,10.34,21.82,10.34s15.94-2.96,20.69-8.88c2.62-3.18,4.8-7.96,6.53-14.32h25.55c-2.23,13.46-7.93,24.4-17.09,32.83Z"/><path class="cls-2" d="m369.26,7.69h23.87v123.46h-23.87V7.69Z"/><path class="cls-2" d="m492.56,51.42c7.71,9.66,11.56,21.08,11.56,34.26s-3.85,24.86-11.56,34.38c-7.71,9.52-19.41,14.28-35.1,14.28s-27.39-4.76-35.1-14.28c-7.71-9.52-11.56-20.98-11.56-34.38s3.85-24.6,11.56-34.26c7.71-9.66,19.4-14.49,35.1-14.49s27.39,4.83,35.1,14.49Zm-35.18,5.7c-6.98,0-12.35,2.47-16.13,7.41-3.77,4.94-5.65,11.99-5.65,21.15s1.88,16.22,5.65,21.19c3.77,4.97,9.14,7.45,16.13,7.45s12.34-2.48,16.08-7.45c3.74-4.97,5.61-12.03,5.61-21.19s-1.87-16.21-5.61-21.15c-3.74-4.94-9.1-7.41-16.08-7.41Z"/><path class="cls-2" d="m579.75,118.26c-.22.28-.78,1.12-1.68,2.51-.89,1.4-1.95,2.63-3.18,3.69-3.74,3.35-7.36,5.64-10.85,6.87-3.49,1.23-7.58,1.84-12.27,1.84-13.51,0-22.62-4.86-27.31-14.57-2.62-5.36-3.94-13.26-3.94-23.7v-55.03h24.46v55.03c0,5.19.61,9.1,1.84,11.73,2.18,4.64,6.45,6.95,12.81,6.95,8.15,0,13.74-3.29,16.75-9.88,1.56-3.57,2.35-8.29,2.35-14.16v-49.67h24.21v91.3h-23.2v-12.9Z"/><path class="cls-2" d="m709.08,7.86v123.3h-23.2v-12.65c-3.41,5.42-7.29,9.35-11.64,11.81-4.36,2.46-9.77,3.69-16.25,3.69-10.67,0-19.64-4.31-26.93-12.94-7.29-8.63-10.93-19.7-10.93-33.21,0-15.58,3.59-27.84,10.76-36.77,7.18-8.93,16.77-13.4,28.77-13.4,5.53,0,10.44,1.21,14.74,3.64s7.79,5.79,10.47,10.09V7.86h24.21Zm-64.33,78.23c0,8.43,1.67,15.16,5.03,20.19,3.29,5.08,8.32,7.62,15.08,7.62s11.89-2.51,15.41-7.54,5.28-11.53,5.28-19.52c0-11.17-2.82-19.15-8.46-23.96-3.46-2.9-7.48-4.36-12.06-4.36-6.98,0-12.1,2.64-15.37,7.92-3.27,5.28-4.9,11.82-4.9,19.64Z"/><path class="cls-2" d="m780.36,133.59c-7.54,0-13.6-1.51-18.18-4.52-2.74-1.79-5.69-4.91-8.88-9.38v11.48h-23.37V7.86h23.79v43.89c3.02-4.24,6.34-7.48,9.97-9.72,4.3-2.79,9.77-4.19,16.42-4.19,12.01,0,21.4,4.33,28.19,12.98,6.78,8.66,10.18,19.82,10.18,33.5s-3.35,25.94-10.05,35.26c-6.7,9.33-16.05,13.99-28.06,13.99Zm13.07-46.74c0-6.48-.84-11.84-2.51-16.08-3.18-8.04-9.05-12.06-17.59-12.06s-14.6,3.94-17.84,11.81c-1.67,4.19-2.51,9.61-2.51,16.25,0,7.82,1.73,14.3,5.19,19.43,3.46,5.14,8.74,7.71,15.83,7.71,6.14,0,10.92-2.48,14.32-7.45,3.41-4.97,5.11-11.5,5.11-19.6Z"/><path class="cls-2" d="m913.71,104.35c-.61,5.42-3.43,10.92-8.46,16.5-7.82,8.88-18.76,13.32-32.83,13.32-11.62,0-21.86-3.74-30.74-11.22-8.88-7.48-13.32-19.65-13.32-36.52,0-15.8,4.01-27.92,12.02-36.35,8.01-8.43,18.41-12.65,31.2-12.65,7.59,0,14.44,1.42,20.52,4.27,6.09,2.85,11.11,7.34,15.08,13.49,3.57,5.42,5.89,11.7,6.95,18.85.61,4.19.86,10.22.75,18.09h-62.49c.34,9.16,3.21,15.58,8.63,19.26,3.29,2.29,7.26,3.43,11.89,3.43,4.91,0,8.91-1.4,11.98-4.19,1.67-1.51,3.15-3.6,4.44-6.28h24.37Zm-23.62-27.98c-.39-6.31-2.3-11.1-5.74-14.36-3.43-3.27-7.69-4.9-12.77-4.9-5.53,0-9.81,1.73-12.86,5.19-3.04,3.46-4.96,8.15-5.74,14.07h37.11Z"/><path class="cls-2" d="m976.86,61.89c-9.61,0-16.05,3.13-19.35,9.38-1.84,3.52-2.76,8.93-2.76,16.25v43.64h-24.04V39.86h22.78v15.91c3.69-6.09,6.9-10.25,9.63-12.48,4.47-3.74,10.27-5.61,17.42-5.61.45,0,.82.01,1.13.04.31.03.99.07,2.05.13v24.46c-1.51-.17-2.85-.28-4.02-.34-1.17-.05-2.12-.08-2.85-.08Z"/><path class="cls-2" d="m1043.62,61.89c-9.61,0-16.05,3.13-19.35,9.38-1.84,3.52-2.76,8.93-2.76,16.25v43.64h-24.04V39.86h22.78v15.91c3.69-6.09,6.9-10.25,9.63-12.48,4.47-3.74,10.27-5.61,17.42-5.61.45,0,.82.01,1.13.04.31.03.99.07,2.05.13v24.46c-1.51-.17-2.85-.28-4.02-.34-1.17-.05-2.12-.08-2.85-.08Z"/><path class="cls-2" d="m1104.36,107.2l18.85-67.34h25.38l-31.33,89.79c-6.03,17.31-10.8,28.05-14.32,32.21-3.52,4.16-10.56,6.24-21.11,6.24-2.12,0-3.82-.01-5.11-.04-1.29-.03-3.21-.13-5.78-.29v-19.1l3.01.17c2.35.11,4.58.03,6.7-.25,2.12-.28,3.91-.92,5.36-1.93,1.4-.95,2.69-2.93,3.9-5.95,1.2-3.02,1.69-4.86,1.47-5.53l-33.5-95.32h26.55l19.93,67.34Z"/><path class="cls-1" d="m208.04,138.84c-17.34,9.29-41.92,17.57-81.83,11.71,2.39-1.62,4.6-3.49,6.59-5.59.17-.09.35-.18.52-.28.39.01.79.02,1.18.02,5.31,0,10.46-1.03,15.21-3,4.76-1.97,9.13-4.88,12.88-8.63,7.07-7.07,11.15-16.33,11.59-26.26,16.51,10.23,26.62,21.62,33.85,32.03Z"/><path class="cls-1" d="m81.84,150.55c-39.92,5.86-64.5-2.42-81.84-11.71,7.24-10.4,17.34-21.8,33.85-32.03.44,9.93,4.53,19.19,11.6,26.26,7.74,7.74,17.92,11.62,28.08,11.62.39,0,.78-.01,1.17-.02h.01c.19.11.36.21.54.3,1.98,2.1,4.19,3.97,6.58,5.58Z"/><path class="cls-3" d="m178.52,74.49c0,6.94-2.26,13.37-6.11,18.57-1.89-6.04-5.22-11.57-9.82-16.17-.85-.85-1.72-1.65-2.63-2.39.9-.76,1.78-1.56,2.63-2.4,4.6-4.61,7.93-10.14,9.82-16.18,3.83,5.21,6.11,11.63,6.11,18.57Z"/><path class="cls-3" d="m48.08,74.49c-.9.75-1.78,1.56-2.63,2.4-4.6,4.6-7.93,10.13-9.83,16.17-3.83-5.21-6.1-11.63-6.1-18.57s2.26-13.35,6.1-18.56c1.89,6.04,5.23,11.57,9.83,16.17.85.85,1.72,1.65,2.63,2.39Z"/><path class="cls-3" d="m122.59,142.89c-3.14,2.33-6.75,4.08-10.65,5.09-2.52.67-5.18,1.01-7.92,1.01s-5.4-.35-7.92-1.01h-.01c-3.9-1.01-7.51-2.77-10.65-5.11,1.13-.35,2.24-.75,3.32-1.21,4.69-1.94,9.07-4.81,12.87-8.6.85-.85,1.65-1.71,2.4-2.61.74.9,1.54,1.77,2.39,2.61,3.74,3.74,8.09,6.64,12.84,8.61,1.08.45,2.2.86,3.34,1.21Z"/><path class="cls-3" d="m122.59,6.11c-6.04,1.88-11.57,5.22-16.17,9.82-.85.85-1.65,1.71-2.39,2.61-.75-.9-1.56-1.77-2.4-2.61-4.7-4.69-10.28-7.96-16.21-9.8,5.21-3.84,11.64-6.12,18.6-6.12s13.38,2.27,18.57,6.11Z"/><path class="cls-3" d="m165.89,104.98c0,1.59-.11,3.17-.35,4.71-.37,2.52-1.05,4.98-2.02,7.31-1.56,3.75-3.85,7.21-6.83,10.18-3.08,3.08-6.69,5.44-10.63,7-2.19.87-4.49,1.49-6.85,1.84-.25.03-.48.07-.73.1h-.01c-1.31.17-2.63.25-3.97.25-.09,0-.18,0-.27-.01-1.03,0-2.04-.06-3.05-.16h-.01c-.57-.07-1.14-.14-1.7-.24-6.47-1.03-12.43-4.06-17.15-8.78-1.27-1.27-2.42-2.64-3.43-4.07,1.59-3.11,2.75-6.4,3.47-9.77,4.78-1.03,9.24-2.91,13.22-5.49,1.26-.82,2.47-1.7,3.62-2.66.89-.72,1.74-1.48,2.55-2.28.24-.23.46-.45.7-.7.8-.81,1.56-1.66,2.29-2.54.95-1.16,1.83-2.37,2.64-3.63.43-.65.85-1.32,1.23-2.01.53-.94,1.01-1.88,1.46-2.86h0c.25-.52.47-1.03.69-1.56.32-.77.61-1.54.89-2.33.27-.81.52-1.65.74-2.48.15-.51.27-1.01.38-1.53.03-.14.07-.28.09-.42,3.41-.73,6.71-1.9,9.79-3.49,1.43,1,2.78,2.15,4.05,3.41,2.49,2.48,4.51,5.31,6.01,8.37.89,1.8,1.59,3.69,2.11,5.62.28,1.03.51,2.08.68,3.14.11.69.2,1.37.27,2.07.08.9.12,1.79.12,2.7.01.09.01.18.01.27Z"/><path class="cls-3" d="m99.16,25.89c-1.6,3.11-2.76,6.4-3.47,9.77-4.78,1.03-9.25,2.91-13.22,5.49h-.01c-1.26.81-2.46,1.7-3.62,2.64-.88.73-1.74,1.5-2.55,2.3-.24.23-.46.45-.69.69-.8.81-1.57,1.67-2.3,2.55-.95,1.16-1.83,2.37-2.65,3.63-2.58,3.98-4.46,8.44-5.49,13.22-3.36.71-6.65,1.87-9.76,3.47-1.43-1-2.79-2.15-4.07-3.43-4.72-4.72-7.75-10.68-8.79-17.15-.26-1.57-.39-3.16-.39-4.77h0c-.01-.1-.01-.19-.01-.28,0-1.59.11-3.14.35-4.69h0c.98-6.6,4.03-12.69,8.85-17.5,4.91-4.91,11.07-7.85,17.46-8.81,1.57-.24,3.14-.36,4.73-.36.09,0,.17,0,.26.01,1.6,0,3.2.14,4.78.41,6.29,1,12.33,3.92,17.16,8.76,1.27,1.27,2.42,2.64,3.43,4.07Z"/><path class="cls-3" d="m103.52,114.22c-.46,1.56-1.06,3.08-1.79,4.55-.72,1.5-1.58,2.95-2.57,4.34-1,1.43-2.15,2.8-3.43,4.07-4.83,4.83-10.89,7.76-17.18,8.76-.57.11-1.15.18-1.74.24-1,.11-2.02.17-3.03.17-1.42.02-2.84-.06-4.25-.26h-.01c-.24-.01-.48-.04-.72-.09-2.33-.35-4.63-.96-6.85-1.84-3.87-1.53-7.49-3.85-10.62-6.98-4.8-4.8-7.85-10.9-8.85-17.49-.24-1.54-.35-3.12-.35-4.71,0-.09,0-.18.01-.27h0c0-.91.05-1.81.12-2.7.07-.7.16-1.39.27-2.07.17-1.06.39-2.12.68-3.14.52-1.94,1.23-3.82,2.12-5.62,1.5-3.07,3.52-5.89,6-8.37,1.28-1.27,2.64-2.42,4.07-3.43h.01c1.39-.99,2.83-1.85,4.33-2.57h.01c1.46-.73,2.99-1.32,4.53-1.79.02,1.14.08,2.28.19,3.39.15,1.51.37,2.99.69,4.44.03.15.07.3.1.45.11.52.25,1.03.38,1.53.23.83.47,1.67.74,2.48.28.79.58,1.57.89,2.33.21.53.44,1.04.69,1.54h0c.45.98.94,1.94,1.46,2.86.38.69.8,1.36,1.23,2.02.81,1.26,1.69,2.47,2.65,3.62.72.88,1.49,1.74,2.29,2.55.23.24.45.47.69.69.81.8,1.67,1.57,2.55,2.3,1.16.95,2.37,1.83,3.63,2.64,3.97,2.59,8.44,4.47,13.22,5.5,1.45.32,2.93.54,4.43.69,1.13.11,2.25.18,3.4.19Z"/><path class="cls-3" d="m165.89,44.01c0,.09,0,.18-.01.27,0,1.61-.14,3.21-.39,4.78-1.04,6.47-4.06,12.43-8.79,17.15-1.26,1.26-2.63,2.41-4.06,3.43-1.38.98-2.82,1.85-4.33,2.58-1.46.72-3,1.32-4.56,1.8-.01-1.15-.08-2.3-.19-3.43-.15-1.51-.38-3-.7-4.45-1.01-4.77-2.91-9.23-5.48-13.2-.81-1.26-1.7-2.48-2.65-3.64-.73-.88-1.49-1.72-2.29-2.54-.24-.24-.46-.46-.7-.7-.81-.8-1.66-1.56-2.55-2.28-1.15-.95-2.36-1.84-3.62-2.65-3.98-2.58-8.44-4.46-13.22-5.49-1.45-.32-2.93-.54-4.44-.69-1.13-.11-2.25-.17-3.4-.19.47-1.56,1.07-3.08,1.8-4.54.72-1.51,1.58-2.96,2.57-4.35,1-1.43,2.15-2.8,3.43-4.07,4.72-4.72,10.67-7.75,17.14-8.79,1.57-.26,3.16-.39,4.77-.39.09-.01.19-.01.28-.01,1.59,0,3.17.12,4.71.35,6.59.99,12.68,4.05,17.48,8.85,4.81,4.8,7.87,10.9,8.85,17.49.24,1.54.35,3.11.35,4.7Z"/><path class="cls-3" d="m135.41,74.49c0,.29,0,.59-.02.88-.02,1-.09,1.99-.23,2.98-.03.41-.09.81-.17,1.21-.06.41-.14.81-.21,1.22-.14.69-.3,1.36-.5,2.03-.08.32-.17.63-.26.94-.11.36-.23.71-.35,1.05-.25.72-.53,1.42-.83,2.12h0c-.25.6-.52,1.18-.82,1.75-.08.18-.17.36-.27.54-.67,1.26-1.42,2.47-2.25,3.62-.81,1.14-1.71,2.23-2.69,3.25-.38.42-.79.83-1.22,1.22-1.01.98-2.1,1.88-3.25,2.69-1.15.83-2.36,1.59-3.62,2.25-1.74.94-3.56,1.69-5.48,2.29-1.35.41-2.74.73-4.16.96-1.37.24-2.77.36-4.19.39-.28.02-.58.02-.87.02s-.58,0-.86-.02c-1.43-.02-2.83-.16-4.2-.39-1.42-.23-2.81-.55-4.16-.96-1.92-.6-3.74-1.35-5.48-2.29-1.26-.66-2.47-1.41-3.61-2.25-1.15-.81-2.23-1.7-3.25-2.68-.43-.39-.85-.81-1.23-1.23-.98-1.01-1.87-2.11-2.69-3.25-.83-1.15-1.58-2.36-2.25-3.61-.09-.18-.19-.37-.27-.55-.3-.56-.57-1.15-.82-1.74h0c-.3-.71-.59-1.41-.82-2.13-.13-.35-.25-.71-.35-1.07-.1-.3-.19-.61-.27-.91-.19-.66-.36-1.34-.5-2.03-.08-.41-.16-.81-.21-1.22-.08-.39-.14-.79-.17-1.19h0c-.13-.99-.2-1.98-.23-3-.02-.28-.02-.57-.02-.87s0-.57.02-.86c.02-1.43.16-2.83.39-4.2.23-1.42.55-2.81.97-4.16.59-1.9,1.35-3.73,2.28-5.47.66-1.26,1.42-2.47,2.25-3.62.82-1.15,1.71-2.23,2.69-3.25.38-.43.8-.85,1.23-1.23,1.01-.98,2.1-1.88,3.25-2.69,1.14-.83,2.34-1.59,3.61-2.25,1.74-.92,3.56-1.69,5.48-2.29,1.35-.41,2.74-.73,4.16-.96,1.38-.24,2.77-.37,4.2-.39.28-.02.56-.02.86-.02s.59,0,.87.02c1.42.03,2.82.16,4.19.39,1.42.23,2.81.55,4.16.96,1.92.6,3.74,1.36,5.48,2.29,1.26.67,2.47,1.42,3.62,2.25,1.15.82,2.23,1.72,3.25,2.7.43.38.83.79,1.22,1.22.98,1.01,1.88,2.1,2.69,3.25.85,1.15,1.6,2.37,2.25,3.63.94,1.72,1.69,3.55,2.28,5.44.42,1.35.74,2.74.97,4.17.24,1.36.36,2.76.39,4.18.02.29.02.59.02.88Z"/></svg>