<?xml version="1.0" encoding="UTF-8"?><svg id="Layer_1" xmlns="http://www.w3.org/2000/svg" viewBox="0 0 1230.06 165.43"><defs><style>.cls-1{fill:#178287;}.cls-1,.cls-2,.cls-3{stroke-width:0px;}.cls-2{fill:#fff;}.cls-3{fill:#ffbd48;}</style></defs><path class="cls-1" d="m204.75,136.64c-17.07,9.14-41.26,17.29-80.53,11.52,2.35-1.6,4.53-3.44,6.49-5.5.17-.09.34-.18.51-.28.39.01.78.02,1.16.02,5.22,0,10.29-1.01,14.97-2.95,4.68-1.94,8.98-4.8,12.68-8.5,6.95-6.95,10.97-16.07,11.4-25.84,16.25,10.07,26.2,21.27,33.32,31.52Z"/><path class="cls-1" d="m80.54,148.17c-39.29,5.77-63.48-2.38-80.54-11.52,7.12-10.24,17.07-21.45,33.32-31.52.43,9.77,4.46,18.89,11.41,25.84,7.62,7.62,17.64,11.44,27.64,11.44.39,0,.77-.01,1.15-.02h.01c.19.11.35.21.53.3,1.95,2.06,4.13,3.9,6.48,5.49Z"/><path class="cls-3" d="m175.7,73.31c0,6.83-2.23,13.15-6.01,18.28-1.86-5.94-5.14-11.39-9.66-15.92-.83-.83-1.7-1.62-2.58-2.35.89-.74,1.75-1.53,2.58-2.36,4.53-4.54,7.81-9.98,9.66-15.93,3.77,5.12,6.01,11.45,6.01,18.28Z"/><path class="cls-3" d="m47.32,73.31c-.89.74-1.75,1.53-2.58,2.36-4.53,4.53-7.81,9.97-9.67,15.92-3.77-5.12-6-11.45-6-18.28s2.23-13.14,6-18.27c1.86,5.94,5.15,11.39,9.67,15.92.83.83,1.7,1.62,2.58,2.35Z"/><path class="cls-3" d="m120.65,140.63c-3.09,2.3-6.64,4.02-10.48,5.01-2.48.65-5.1,1-7.8,1s-5.31-.34-7.8-1h-.01c-3.84-1-7.39-2.73-10.48-5.02,1.11-.34,2.21-.74,3.27-1.19,4.61-1.91,8.93-4.74,12.67-8.46.83-.83,1.62-1.69,2.36-2.57.73.89,1.52,1.74,2.35,2.57,3.68,3.68,7.96,6.53,12.63,8.47,1.06.44,2.16.84,3.28,1.19Z"/><path class="cls-3" d="m120.65,6.01c-5.95,1.85-11.39,5.14-15.92,9.66-.83.83-1.62,1.69-2.35,2.57-.74-.89-1.53-1.74-2.36-2.57-4.62-4.61-10.12-7.83-15.95-9.65,5.12-3.78,11.46-6.02,18.3-6.02s13.16,2.23,18.28,6.01Z"/><path class="cls-3" d="m163.26,103.32c0,1.56-.11,3.12-.34,4.64-.37,2.48-1.03,4.9-1.99,7.2-1.53,3.69-3.79,7.1-6.72,10.02-3.03,3.03-6.59,5.36-10.46,6.89-2.15.85-4.41,1.46-6.74,1.81-.24.03-.48.07-.72.1h-.01c-1.29.17-2.58.24-3.9.24-.09,0-.18,0-.27-.01-1.01,0-2.01-.06-3.01-.16h-.01c-.57-.07-1.12-.13-1.67-.23-6.37-1.01-12.23-3.99-16.88-8.64-1.25-1.25-2.38-2.6-3.37-4,1.56-3.06,2.71-6.3,3.42-9.62,4.7-1.01,9.1-2.86,13.01-5.4,1.24-.81,2.43-1.67,3.56-2.62.88-.71,1.71-1.45,2.51-2.24.23-.22.45-.44.69-.69.79-.8,1.53-1.63,2.25-2.5.93-1.14,1.8-2.33,2.6-3.57.42-.64.83-1.3,1.21-1.97.52-.92,1-1.85,1.44-2.82h0c.24-.51.47-1.01.68-1.53.31-.75.6-1.52.88-2.3.27-.8.51-1.62.73-2.44.14-.5.27-1,.38-1.51.03-.13.07-.28.09-.41,3.36-.72,6.6-1.87,9.64-3.44,1.41.99,2.74,2.12,3.98,3.36,2.45,2.44,4.44,5.22,5.91,8.24.88,1.77,1.56,3.63,2.07,5.53.28,1.01.5,2.05.67,3.09.11.68.2,1.35.27,2.04.08.89.12,1.76.12,2.66.01.09.01.18.01.27Z"/><path class="cls-3" d="m97.59,25.48c-1.57,3.06-2.72,6.3-3.42,9.62-4.7,1.01-9.11,2.86-13.01,5.4h-.01c-1.24.8-2.42,1.67-3.56,2.6-.86.72-1.71,1.48-2.51,2.26-.23.22-.45.44-.68.68-.79.8-1.54,1.64-2.26,2.51-.93,1.14-1.8,2.33-2.61,3.57-2.54,3.92-4.39,8.31-5.4,13.01-3.31.7-6.54,1.84-9.61,3.42-1.41-.99-2.75-2.12-4-3.37-4.65-4.65-7.63-10.51-8.65-16.88-.26-1.54-.39-3.11-.39-4.69h0c-.01-.1-.01-.19-.01-.28,0-1.56.11-3.09.34-4.61h0c.97-6.5,3.97-12.49,8.71-17.22,4.84-4.84,10.89-7.73,17.18-8.67,1.54-.23,3.09-.35,4.66-.35.09,0,.17,0,.26.01,1.57,0,3.15.13,4.7.4,6.19.99,12.13,3.86,16.89,8.62,1.25,1.25,2.38,2.6,3.37,4Z"/><path class="cls-3" d="m101.88,112.41c-.45,1.53-1.04,3.03-1.76,4.48-.71,1.48-1.55,2.91-2.53,4.27-.99,1.41-2.12,2.75-3.37,4-4.76,4.76-10.71,7.64-16.9,8.62-.57.11-1.13.18-1.71.23-.99.11-1.98.17-2.98.17-1.4.02-2.8-.06-4.18-.26h-.01c-.23-.01-.48-.04-.71-.09-2.3-.34-4.56-.94-6.74-1.81-3.8-1.51-7.38-3.79-10.45-6.87-4.72-4.72-7.73-10.73-8.71-17.21-.23-1.52-.34-3.07-.34-4.64,0-.09,0-.18.01-.27h0c0-.9.04-1.79.12-2.66.07-.69.16-1.36.27-2.04.17-1.04.39-2.09.67-3.09.51-1.91,1.21-3.76,2.09-5.53,1.48-3.02,3.46-5.8,5.9-8.24,1.26-1.25,2.6-2.38,4-3.37h.01c1.36-.98,2.78-1.82,4.26-2.53h.01c1.44-.72,2.94-1.3,4.46-1.76.02,1.12.08,2.24.19,3.34.14,1.49.37,2.94.68,4.37.03.14.07.3.1.44.11.51.24,1.01.38,1.51.22.82.47,1.64.73,2.44.28.78.57,1.54.88,2.3.21.52.43,1.02.68,1.52h0c.44.96.92,1.91,1.44,2.82.38.68.79,1.34,1.21,1.99.8,1.24,1.66,2.43,2.61,3.56.71.87,1.46,1.71,2.25,2.51.22.23.44.47.68.68.8.79,1.64,1.54,2.51,2.26,1.14.93,2.33,1.8,3.57,2.6,3.9,2.55,8.31,4.4,13.01,5.41,1.43.31,2.88.53,4.36.68,1.11.11,2.22.18,3.35.19Z"/><path class="cls-3" d="m163.26,43.31c0,.09,0,.18-.01.27,0,1.59-.13,3.16-.39,4.7-1.02,6.37-3.99,12.23-8.65,16.88-1.24,1.24-2.58,2.37-3.99,3.37-1.35.97-2.77,1.82-4.26,2.54-1.44.71-2.95,1.3-4.49,1.77-.01-1.13-.08-2.26-.19-3.37-.14-1.49-.38-2.95-.69-4.38-1-4.69-2.86-9.08-5.39-12.99-.8-1.24-1.68-2.44-2.61-3.58-.72-.87-1.46-1.7-2.25-2.5-.23-.23-.45-.45-.69-.69-.8-.79-1.63-1.53-2.51-2.24-1.13-.93-2.32-1.81-3.56-2.61-3.91-2.54-8.31-4.39-13.01-5.4-1.43-.31-2.88-.53-4.37-.68-1.11-.11-2.22-.17-3.35-.19.47-1.53,1.05-3.03,1.77-4.47.71-1.49,1.55-2.92,2.53-4.28.99-1.41,2.12-2.75,3.37-4,4.65-4.65,10.5-7.63,16.87-8.65,1.54-.26,3.11-.39,4.69-.39.09-.01.19-.01.28-.01,1.56,0,3.12.12,4.64.34,6.49.98,12.48,3.98,17.2,8.71,4.74,4.72,7.74,10.73,8.71,17.21.23,1.52.34,3.06.34,4.62Z"/><path class="cls-3" d="m133.26,73.31c0,.29,0,.58-.02.87-.02.99-.09,1.96-.22,2.93-.03.4-.09.8-.17,1.19-.06.4-.13.8-.21,1.2-.13.68-.3,1.34-.49,2-.08.31-.17.62-.26.92-.11.35-.22.7-.34,1.03-.24.71-.52,1.4-.82,2.09h0c-.24.59-.51,1.16-.81,1.72-.08.18-.17.35-.27.53-.65,1.24-1.4,2.43-2.22,3.56-.8,1.12-1.69,2.2-2.65,3.19-.38.41-.78.82-1.2,1.2-1,.96-2.06,1.85-3.19,2.65-1.13.82-2.32,1.56-3.56,2.22-1.71.92-3.51,1.66-5.39,2.25-1.33.4-2.7.72-4.09.94-1.35.23-2.73.35-4.13.39-.28.02-.57.02-.85.02s-.57,0-.84-.02c-1.41-.02-2.78-.16-4.14-.39-1.4-.22-2.76-.54-4.09-.94-1.89-.59-3.68-1.33-5.39-2.25-1.24-.65-2.43-1.39-3.55-2.22-1.13-.8-2.2-1.67-3.19-2.64-.42-.39-.83-.8-1.21-1.21-.97-1-1.84-2.07-2.65-3.19-.82-1.13-1.55-2.32-2.22-3.55-.09-.18-.19-.37-.27-.54-.3-.55-.57-1.13-.81-1.71h0c-.3-.7-.58-1.39-.81-2.1-.13-.34-.24-.7-.34-1.05-.1-.3-.19-.6-.27-.9-.19-.65-.35-1.32-.49-2-.08-.4-.16-.8-.21-1.2-.08-.39-.13-.78-.17-1.18h0c-.13-.98-.2-1.95-.22-2.95-.02-.28-.02-.57-.02-.85s0-.57.02-.84c.02-1.41.16-2.78.39-4.14.22-1.4.54-2.76.95-4.09.58-1.87,1.33-3.67,2.24-5.38.65-1.24,1.4-2.43,2.22-3.56.81-1.13,1.69-2.2,2.65-3.19.38-.42.79-.83,1.21-1.21,1-.97,2.06-1.85,3.19-2.65,1.12-.82,2.31-1.56,3.55-2.22,1.71-.91,3.5-1.66,5.39-2.25,1.33-.4,2.7-.72,4.09-.94,1.35-.23,2.73-.37,4.14-.39.28-.02.55-.02.84-.02s.58,0,.85.02c1.4.03,2.77.16,4.13.39,1.4.22,2.76.54,4.09.94,1.89.59,3.68,1.34,5.39,2.25,1.24.65,2.43,1.4,3.56,2.22,1.13.81,2.2,1.7,3.19,2.66.42.38.82.78,1.2,1.2.97,1,1.85,2.06,2.65,3.19.83,1.13,1.57,2.33,2.22,3.57.92,1.7,1.66,3.49,2.24,5.36.41,1.33.73,2.7.95,4.1.23,1.34.35,2.72.39,4.11.02.29.02.58.02.87Z"/><path class="cls-2" d="m328.63,120.01c-9.07,8.3-20.66,12.45-34.79,12.45-17.48,0-31.21-5.61-41.22-16.82-10-11.27-15-26.71-15-46.33,0-21.21,5.69-37.56,17.06-49.05,9.89-10,22.48-15,37.75-15,20.44,0,35.39,6.71,44.84,20.11,5.22,7.53,8.02,15.09,8.41,22.67h-25.39c-1.65-5.82-3.77-10.22-6.35-13.19-4.62-5.28-11.46-7.91-20.53-7.91s-16.52,3.72-21.85,11.17c-5.33,7.45-8,17.98-8,31.61s2.82,23.84,8.45,30.62c5.63,6.79,12.79,10.18,21.47,10.18s15.69-2.91,20.36-8.74c2.58-3.13,4.73-7.83,6.43-14.1h25.14c-2.2,13.24-7.8,24.02-16.82,32.31Z"/><path class="cls-2" d="m363.41,7.57h23.49v121.51h-23.49V7.57Z"/><path class="cls-2" d="m484.76,50.6c7.58,9.51,11.38,20.75,11.38,33.72s-3.79,24.47-11.38,33.84c-7.58,9.37-19.1,14.06-34.54,14.06s-26.96-4.68-34.54-14.06c-7.58-9.37-11.38-20.65-11.38-33.84s3.79-24.21,11.38-33.72c7.58-9.51,19.1-14.26,34.54-14.26s26.96,4.75,34.54,14.26Zm-34.62,5.61c-6.87,0-12.16,2.43-15.87,7.3-3.71,4.86-5.56,11.8-5.56,20.81s1.85,15.97,5.56,20.86c3.71,4.89,9,7.34,15.87,7.34s12.14-2.44,15.83-7.34c3.68-4.89,5.52-11.84,5.52-20.86s-1.84-15.95-5.52-20.81c-3.68-4.86-8.96-7.3-15.83-7.3Z"/><path class="cls-2" d="m570.57,116.39c-.22.28-.77,1.1-1.65,2.47-.88,1.37-1.92,2.58-3.13,3.63-3.68,3.3-7.24,5.55-10.68,6.76-3.44,1.21-7.46,1.81-12.08,1.81-13.3,0-22.26-4.78-26.87-14.34-2.58-5.28-3.87-13.05-3.87-23.33v-54.16h24.07v54.16c0,5.11.6,8.96,1.81,11.54,2.14,4.56,6.35,6.84,12.61,6.84,8.02,0,13.52-3.24,16.49-9.73,1.54-3.52,2.31-8.16,2.31-13.93v-48.88h23.82v89.85h-22.83v-12.69Z"/><path class="cls-2" d="m697.85,7.74v121.34h-22.83v-12.45c-3.35,5.33-7.17,9.21-11.46,11.62-4.29,2.42-9.62,3.63-15.99,3.63-10.5,0-19.33-4.25-26.5-12.74-7.17-8.49-10.76-19.38-10.76-32.69,0-15.33,3.53-27.4,10.59-36.19,7.06-8.79,16.5-13.19,28.32-13.19,5.44,0,10.28,1.2,14.51,3.59,4.23,2.39,7.67,5.7,10.31,9.93V7.74h23.82Zm-63.31,76.99c0,8.3,1.65,14.92,4.95,19.87,3.24,5,8.19,7.5,14.84,7.5s11.71-2.47,15.17-7.42c3.46-4.95,5.19-11.35,5.19-19.21,0-10.99-2.78-18.85-8.33-23.58-3.41-2.86-7.37-4.29-11.87-4.29-6.87,0-11.91,2.6-15.13,7.79-3.21,5.19-4.82,11.64-4.82,19.33Z"/><path class="cls-2" d="m768,131.47c-7.42,0-13.38-1.48-17.89-4.45-2.69-1.76-5.6-4.84-8.74-9.23v11.29h-23V7.74h23.41v43.2c2.97-4.18,6.24-7.36,9.81-9.56,4.23-2.75,9.62-4.12,16.16-4.12,11.82,0,21.06,4.26,27.74,12.78,6.68,8.52,10.02,19.51,10.02,32.97s-3.3,25.53-9.89,34.7c-6.6,9.18-15.8,13.77-27.62,13.77Zm12.86-46c0-6.37-.82-11.65-2.47-15.83-3.13-7.91-8.9-11.87-17.31-11.87s-14.37,3.87-17.56,11.62c-1.65,4.12-2.47,9.45-2.47,15.99,0,7.69,1.7,14.07,5.11,19.12,3.41,5.06,8.6,7.58,15.58,7.58,6.04,0,10.74-2.44,14.1-7.34,3.35-4.89,5.03-11.32,5.03-19.29Z"/><path class="cls-2" d="m899.24,102.7c-.61,5.33-3.38,10.74-8.33,16.24-7.7,8.74-18.47,13.11-32.31,13.11-11.43,0-21.52-3.68-30.25-11.05-8.74-7.36-13.11-19.34-13.11-35.94,0-15.55,3.94-27.48,11.83-35.78,7.88-8.3,18.12-12.45,30.71-12.45,7.47,0,14.21,1.4,20.2,4.2,5.99,2.8,10.93,7.23,14.84,13.27,3.52,5.33,5.8,11.51,6.84,18.55.6,4.12.85,10.06.74,17.81h-61.5c.33,9.01,3.16,15.33,8.49,18.96,3.24,2.25,7.14,3.38,11.71,3.38,4.84,0,8.77-1.37,11.79-4.12,1.65-1.48,3.1-3.54,4.37-6.18h23.99Zm-23.25-27.53c-.38-6.21-2.27-10.92-5.65-14.14s-7.57-4.82-12.57-4.82c-5.44,0-9.66,1.7-12.65,5.11-3,3.41-4.88,8.02-5.65,13.85h36.52Z"/><path class="cls-2" d="m961.39,60.91c-9.45,0-15.8,3.08-19.04,9.23-1.81,3.46-2.72,8.79-2.72,15.99v42.95h-23.66V39.23h22.42v15.66c3.63-5.99,6.79-10.08,9.48-12.28,4.4-3.68,10.11-5.52,17.15-5.52.44,0,.81.01,1.11.04.3.03.98.07,2.02.12v24.07c-1.48-.16-2.8-.27-3.96-.33-1.15-.05-2.09-.08-2.8-.08Z"/><path class="cls-2" d="m1027.09,60.91c-9.45,0-15.8,3.08-19.04,9.23-1.81,3.46-2.72,8.79-2.72,15.99v42.95h-23.66V39.23h22.42v15.66c3.63-5.99,6.79-10.08,9.48-12.28,4.4-3.68,10.11-5.52,17.15-5.52.44,0,.81.01,1.11.04.3.03.98.07,2.02.12v24.07c-1.48-.16-2.8-.27-3.96-.33-1.15-.05-2.09-.08-2.8-.08Z"/><path class="cls-2" d="m1086.87,105.5l18.55-66.28h24.98l-30.83,88.37c-5.94,17.04-10.63,27.6-14.1,31.7-3.46,4.09-10.39,6.14-20.77,6.14-2.09,0-3.76-.01-5.03-.04-1.26-.03-3.16-.12-5.69-.29v-18.79l2.97.16c2.31.11,4.51.03,6.59-.25,2.09-.28,3.85-.91,5.28-1.9,1.37-.94,2.65-2.89,3.83-5.85,1.18-2.97,1.66-4.78,1.44-5.44l-32.97-93.81h26.13l19.62,66.28Z"/><path class="cls-2" d="m1169.42,56.9h-11.29l-16.65-49.27h13.55l8.92,31.19,9-31.19h13.27l-16.81,49.27Zm-9.13-3h6.99l14.77-43.27h-6.82l-11.27,39.06-11.17-39.06h-7.11l14.62,43.27Z"/><path class="cls-2" d="m1208.64,56.9c-7.07,0-12.73-2.32-16.81-6.91-4.04-4.56-6.09-10.83-6.09-18.64,0-8.45,2.33-15.09,6.93-19.73,4.04-4.09,9.24-6.16,15.44-6.16,8.26,0,14.42,2.79,18.3,8.3,2.15,3.1,3.31,6.26,3.47,9.42l.08,1.58h-12.38l-.31-1.09c-.56-1.99-1.27-3.49-2.1-4.45-1.47-1.68-3.66-2.5-6.69-2.5s-5.35,1.19-7.1,3.63c-1.83,2.56-2.76,6.32-2.76,11.17s.97,8.41,2.87,10.7c1.86,2.24,4.16,3.33,7.02,3.33s5.09-.9,6.58-2.77c.86-1.04,1.58-2.66,2.17-4.82l.3-1.11h12.49l-.29,1.75c-.89,5.36-3.2,9.79-6.87,13.16h0c-3.72,3.41-8.52,5.14-14.26,5.14Zm-.53-48.44c-5.45,0-9.8,1.72-13.31,5.27-4.02,4.06-6.06,9.99-6.06,17.62,0,7.06,1.79,12.66,5.33,16.65,3.54,3.97,8.31,5.9,14.57,5.9,5.04,0,9.04-1.42,12.23-4.34,2.76-2.54,4.63-5.8,5.58-9.7h-6.62c-.65,2.07-1.45,3.65-2.41,4.82-2.06,2.56-5.06,3.87-8.91,3.87s-6.9-1.49-9.33-4.42c-2.36-2.85-3.56-7.09-3.56-12.62s1.12-9.83,3.33-12.91c2.32-3.24,5.53-4.88,9.54-4.88s6.9,1.19,8.95,3.53c.97,1.11,1.75,2.59,2.4,4.51h6.88c-.38-2.08-1.3-4.19-2.75-6.28-3.33-4.72-8.51-7.01-15.84-7.01Z"/></svg>